# xmcd
#
# Track frame offsets:
#	150
#	24533
#	42672
#	56231
#	70363
#	87718
#	114613
#	141003
#	157696
#	171944
#	184960
#	219670
#	233020
#	246272
#	271248
#	284733
#	312809
#	337642
#
# Disc length: 4723 seconds
#
# Revision: 1
# Processed by: cddbd v1.5.2PL0 Copyright (c) Steve Scherf et al.
# Submitted via: EasyCDDAExtractor 16.0.6.1
#
DISCID=10127112
DTITLE=Sly Stone - I' m Just Like You - Sly's Stone Flower - 1969-70
DYEAR=2014
DGENRE=Funk
TTITLE0=Little Sister/You're The One (Parts 1 and 2)
TTITLE1=Sly/Just Like a Baby
TTITLE2=Joe Hicks/Home Sweet Home (Part 2)
TTITLE3=6IX/I'm Just Like You
TTITLE4=Little Sister/Somebody's Watching You (Full Band Version)
TTITLE5=Joe Hicks/Life and Death in G and A (Parts 1 and 2)
TTITLE6=6IX/Trying to Make You Feel Good
TTITLE7=Little Sister/Stanga
TTITLE8=6IX/Dynamite
TTITLE9=Little Sister/You're the One (Early Version)
TTITLE10=Sly/Africa
TTITLE11=Joe Hicks/I'm Goin' Home (Part 1)
TTITLE12=Little Sister/Somebody's Watching You
TTITLE13=6IX/You Can, We Can
TTITLE14=Sly/Spirit
TTITLE15=6IX/I'm Just Like You (Full Band Version)
TTITLE16=Sly/Scared
TTITLE17=6IX/Dynamite (Alternate Version)
EXTD=YEAR: 2014
EXTT0=
EXTT1=
EXTT2=
EXTT3=
EXTT4=
EXTT5=
EXTT6=
EXTT7=
EXTT8=
EXTT9=
EXTT10=
EXTT11=
EXTT12=
EXTT13=
EXTT14=
EXTT15=
EXTT16=
EXTT17=
PLAYORDER=
